<svg xmlns="http://www.w3.org/2000/svg" xmlns:xlink="http://www.w3.org/1999/xlink" width="1123" zoomAndPan="magnify" viewBox="0 0 842.25 595.499986" height="794" preserveAspectRatio="xMidYMid meet" version="1.2"><defs><clipPath id="14cafeedf2"><path d="M 117 0.015625 L 727 0.015625 L 727 594.984375 L 117 594.984375 Z M 117 0.015625 "/></clipPath><clipPath id="4729a7a7a8"><path d="M 25 11 L 607.359375 11 L 607.359375 555 L 25 555 Z M 25 11 "/></clipPath><clipPath id="8def7473bd"><path d="M 0.015625 0.015625 L 499 0.015625 L 499 570 L 0.015625 570 Z M 0.015625 0.015625 "/></clipPath><clipPath id="2d6a85dc05"><path d="M 15.007812 537 L 574 537 L 574 594.984375 L 15.007812 594.984375 Z M 15.007812 537 "/></clipPath><clipPath id="743885ee98"><rect x="0" width="610" y="0" height="595"/></clipPath></defs><g id="666ddfb19b"><g clip-rule="nonzero" clip-path="url(#14cafeedf2)"><g transform="matrix(1,0,0,1,117,-0.000000000000000137)"><g clip-path="url(#743885ee98)"><g clip-rule="nonzero" clip-path="url(#4729a7a7a8)"><path style=" stroke:none;fill-rule:evenodd;fill:#000000;fill-opacity:1;" d="M 468.597656 554.5 L 469.050781 554.097656 C 470.902344 552.414062 482.234375 541.546875 483.882812 542.632812 C 507.4375 528.738281 555.207031 477.714844 562.90625 453.386719 C 571.140625 427.40625 593.753906 416.460938 604.175781 365.34375 C 604.667969 362.964844 605.0625 364.707031 605.0625 359.714844 C 602.214844 356.300781 574.246094 358.109375 571.289062 355.941406 C 571.148438 355.839844 544.992188 355.738281 541.035156 355.070312 C 536.707031 354.34375 532.683594 355.613281 526.335938 354.261719 C 525.226562 354.027344 510.0625 353.894531 506.421875 353.441406 C 501.652344 352.851562 494.972656 351.5625 490.203125 351.5625 C 492.023438 350.371094 502.496094 350.753906 506.285156 349.984375 C 512.792969 348.667969 530.980469 349.609375 536.125 347.339844 C 536.214844 347.296875 556.976562 347.113281 561.796875 345.710938 C 576.703125 341.351562 595.976562 347.632812 602.632812 339.105469 C 603.957031 337.402344 605.5625 337.265625 605.671875 333.984375 C 605.78125 330.804688 605.820312 327.640625 606.632812 324.296875 C 607.648438 320.121094 607.300781 291.804688 607.300781 284.957031 C 606.90625 283.597656 600.785156 242.242188 600.785156 240.464844 C 600.785156 239.988281 600.132812 236.113281 599.28125 231.667969 C 597.328125 221.523438 594.113281 220.964844 591.640625 220.238281 C 589.730469 219.679688 589.5625 217.992188 582.554688 218.132812 C 569.636719 218.375 551.722656 218.03125 549.035156 216.996094 C 544.339844 215.175781 512.347656 217.15625 507.097656 215.367188 C 506.210938 215.058594 486.804688 214.042969 482.652344 213.882812 C 493.769531 211.851562 499.332031 212.554688 503.136719 211.492188 C 503.429688 211.417969 510.953125 211.425781 518.085938 210.792969 C 525.984375 210.109375 533.628906 208.761719 535.371094 208.695312 C 544.140625 208.328125 554.152344 208.121094 556.609375 207.066406 C 560.484375 205.398438 587.464844 209.128906 591.007812 207.160156 C 588.585938 199.386719 587.484375 202.867188 585.914062 194.066406 C 583.992188 183.277344 574.296875 176.351562 571.199219 162.597656 C 570.496094 159.46875 568.277344 157.203125 568.191406 155.84375 C 561.753906 152.402344 562.796875 143.734375 556.902344 137.921875 C 548.984375 130.140625 530.371094 96.453125 519.554688 92.851562 C 517.410156 87.214844 501.976562 78.699219 489.550781 71.851562 C 483.429688 68.492188 480.691406 64.71875 477.976562 62.707031 C 474.921875 60.449219 469.007812 57.078125 465.710938 54.921875 C 463.5625 53.527344 461.527344 51.773438 453.457031 51.691406 C 424.3125 51.390625 357.414062 53.203125 347.425781 53.203125 C 357.765625 51.023438 399.417969 46.171875 412.488281 44.316406 C 424.648438 42.578125 439.65625 40.984375 441.523438 40.984375 C 441.800781 41.09375 421.917969 30.839844 412.949219 28.390625 C 407.5625 26.921875 399.4375 23.980469 391.085938 21.433594 C 379.820312 17.984375 367.953125 15.890625 361.691406 16.132812 C 360.171875 16.191406 345.898438 13.851562 340.101562 14.09375 C 326.726562 14.671875 314.347656 10.953125 302.375 11.554688 C 291.160156 12.132812 280.335938 17.027344 267.910156 17.734375 C 262.957031 18.003906 250.15625 22.101562 244.785156 22.644531 C 228.585938 28.792969 215.808594 25.101562 196.527344 42.480469 C 194.203125 44.585938 163.992188 55.898438 149.886719 68.34375 C 140.832031 76.324219 120.976562 86.757812 114.253906 96.851562 C 109.074219 104.628906 96.714844 109.152344 87.695312 123.523438 C 87.480469 123.875 85.242188 126.238281 82.277344 129.414062 C 78.109375 133.878906 74.527344 139.886719 73.558594 145.980469 C 72.964844 149.679688 71.109375 153.824219 83.578125 154.40625 C 88.773438 154.640625 96.324219 156.453125 101.851562 156.453125 C 111.0625 156.453125 121.585938 158.492188 131.429688 158.492188 C 143.378906 158.492188 156.824219 159.300781 168.691406 159.300781 C 170.414062 159.300781 173.71875 160.21875 175.949219 160.21875 C 174.828125 160.152344 173.445312 161.085938 170.152344 161.699219 C 164.640625 162.714844 143.523438 164.402344 137.851562 164.402344 C 134.429688 164.402344 115.605469 164.703125 113.226562 165.773438 C 109.484375 167.453125 82.785156 165.582031 74.375 167.785156 C 72.515625 168.285156 63.152344 169.289062 61.089844 169.289062 C 58.492188 170.082031 48.054688 187.476562 47.660156 192.65625 C 47.429688 195.753906 39.203125 213.023438 37.875 218.15625 C 34.492188 225.421875 25.65625 267.679688 25.65625 274.976562 C 25.171875 277.382812 25.398438 277.734375 27.59375 277.734375 C 31.785156 277.734375 34.160156 278 38.160156 278.242188 C 38.160156 278.242188 38.449219 278.234375 38.484375 278.234375 C 41.699219 278.234375 42.710938 278.285156 45.757812 278.628906 C 50.425781 279.136719 52.515625 279.664062 57.589844 279.664062 C 65.425781 279.664062 73.15625 280.03125 80.972656 280.171875 C 85.332031 280.246094 90.777344 281.601562 94.183594 281.601562 C 105.566406 280.832031 137.535156 278.929688 147.4375 280.890625 C 153.945312 282.175781 197.117188 286.402344 200.800781 284.253906 C 194.320312 292.355469 93.925781 285.332031 83.226562 290.46875 C 77.550781 293.191406 51.894531 293.640625 41.984375 295.289062 C 39.484375 295.695312 27.910156 294.535156 26.066406 296.0625 C 26.058594 303.988281 25.457031 311.511719 25.457031 319.914062 C 25.457031 322.136719 27.085938 323.113281 27.085938 329.46875 C 27.085938 334.972656 28.949219 339.164062 28.714844 346.121094 C 28.671875 347.203125 29.664062 351.855469 30.34375 352.683594 C 31.738281 353.441406 30.542969 360.375 30.542969 362.335938 C 30.542969 370.679688 40.046875 390.78125 39.914062 392.390625 C 45.957031 392.882812 50.484375 396.433594 58.910156 396.265625 C 61.558594 396.207031 69.917969 397.484375 74.601562 397.484375 C 81.75 397.484375 107.519531 396.742188 112.214844 397.277344 C 105.324219 403.847656 80.398438 402.078125 68.1875 404.710938 C 62.21875 405.996094 50.382812 407.257812 44.195312 407.257812 C 59.160156 455.910156 76.890625 454.238281 86.027344 475.667969 C 89.125 482.964844 112.75 513.253906 119.144531 517.640625 C 124.707031 524.585938 157.792969 550.359375 167.515625 554.5 L 468.597656 554.5 "/></g><g clip-rule="nonzero" clip-path="url(#8def7473bd)"><path style=" stroke:none;fill-rule:evenodd;fill:#fefefe;fill-opacity:1;" d="M 380.203125 143.667969 C 379.59375 146.40625 378.769531 149.113281 377.730469 151.703125 C 378.984375 151.550781 380.246094 151.449219 381.507812 151.425781 C 381.757812 149.964844 381.964844 148.484375 382.148438 147.015625 C 382.332031 145.570312 382.417969 144.152344 382.46875 142.75 C 381.707031 143.058594 380.957031 143.367188 380.203125 143.667969 Z M 347.316406 75.78125 C 356.585938 80.617188 365.089844 85.636719 373.171875 91.082031 C 375.695312 88.519531 379.527344 87.332031 383.070312 87.84375 C 386.542969 86.089844 389.957031 85.730469 394.082031 87.289062 C 397.492188 86.714844 400.179688 87.15625 402.691406 89.285156 C 404.941406 89.554688 406.792969 90.054688 408.523438 91.105469 C 409.925781 88.769531 411.945312 86.914062 414.917969 86.179688 C 417.714844 85.488281 420.640625 85.972656 423.054688 87.265625 C 424.222656 87.074219 425.40625 87.074219 426.542969 87.28125 C 428.496094 87.648438 430.417969 88.617188 432.003906 89.953125 C 434.578125 90.421875 437.050781 91.773438 438.835938 93.789062 C 440.765625 94.398438 442.535156 95.449219 444.023438 96.996094 C 445.625 98.65625 446.644531 100.519531 447.269531 102.507812 C 450.117188 102.78125 452.957031 103.023438 455.789062 103.207031 C 457.234375 103.308594 458.652344 103.40625 460.074219 103.648438 C 466.269531 104.703125 471.296875 108.527344 471.304688 115.316406 C 471.304688 115.867188 471.296875 116.425781 471.269531 116.988281 C 471.1875 118.683594 471.003906 120.378906 470.769531 122.046875 C 469.742188 129.421875 465.300781 133.277344 457.699219 132.828125 C 453.765625 132.601562 449.835938 132.308594 445.890625 131.992188 C 445.351562 133.539062 444.613281 135.042969 443.621094 136.484375 C 442.96875 139.214844 444.097656 147.324219 444.472656 149.90625 C 445.824219 159.265625 446.367188 169.816406 443.503906 178.957031 C 441.417969 185.613281 437.601562 191.074219 431.664062 194.777344 C 426.734375 197.847656 421.222656 200.355469 415.695312 202.082031 L 414.917969 202.324219 C 409.140625 207.894531 401.78125 211.152344 394.125 213.324219 C 390.902344 214.242188 387.679688 214.953125 384.371094 215.492188 C 382.367188 215.828125 380.304688 216.070312 378.308594 216.496094 C 377.523438 216.65625 376.746094 216.855469 375.988281 217.121094 C 373.507812 217.964844 370.691406 219.820312 368.511719 221.265625 C 367.910156 221.664062 367.292969 222.089844 366.640625 222.535156 C 366.265625 225.207031 365.296875 227.96875 363.878906 230.382812 C 364.3125 234.117188 363.636719 238.417969 362.132812 242.035156 C 364.496094 245.609375 365.875 249.65625 366.96875 253.792969 C 367.277344 254.953125 367.5625 256.195312 367.851562 257.464844 C 374.550781 256.957031 381.789062 260.699219 385.917969 265.976562 C 406.726562 258.96875 427.378906 251.5625 447.746094 243.730469 C 451.394531 242.324219 455.09375 241.28125 458.953125 242.660156 C 462.753906 244.027344 465.015625 247.152344 466.320312 250.828125 L 468.003906 255.605469 C 470.746094 263.363281 467.597656 269.140625 460.003906 271.863281 C 437.535156 279.921875 414.960938 287.761719 392.289062 295.304688 C 402.148438 303.296875 412.347656 310.777344 422.550781 318.335938 C 425.175781 320.289062 427.789062 322.671875 430.234375 324.847656 C 433.832031 328.082031 437.390625 331.378906 440.921875 334.703125 C 444.480469 338.070312 448.023438 341.46875 451.488281 344.925781 C 453.808594 347.246094 456.480469 349.84375 458.492188 352.433594 C 459.847656 354.152344 461.257812 355.855469 462.660156 357.542969 C 463.804688 358.921875 465.101562 360.589844 466.367188 361.910156 C 478.378906 370.210938 486.175781 395.347656 486.167969 408.992188 C 486.269531 409.726562 486.980469 411.230469 487.289062 411.925781 C 488.257812 414.105469 489.21875 416.234375 489.96875 418.496094 C 492.316406 425.59375 492.023438 432.375 488.425781 439.039062 C 487.429688 440.878906 486.863281 442.421875 486.109375 444.328125 C 484.757812 447.800781 482.761719 450.589844 480.457031 453.46875 C 479.203125 456.117188 478.703125 458.0625 475.878906 460.027344 C 475.855469 460.035156 475.839844 460.058594 475.8125 460.066406 C 475.824219 461.460938 475.546875 462.921875 474.945312 464.375 C 473.808594 467.097656 471.839844 470.089844 470.011719 472.410156 C 468.890625 473.820312 468.273438 475.050781 467.820312 476.8125 C 466.609375 481.503906 465.933594 486.339844 462.117188 489.789062 C 460.488281 491.257812 458.636719 492.152344 456.65625 492.613281 C 453.566406 498.675781 451.0625 503.691406 451.0625 511.410156 C 451.0625 512.972656 451.144531 514.28125 452.246094 515.433594 C 454.300781 517.589844 456.742188 519.066406 458.886719 521.496094 C 461.175781 524.09375 466.929688 528.664062 469.941406 530.375 C 475.679688 533.632812 477.609375 533.921875 483.9375 535.433594 C 487.832031 536.371094 491.539062 537.378906 494.460938 540.320312 C 498.71875 544.578125 498.855469 550.398438 497.785156 555.910156 C 499.164062 561.992188 495.421875 564.703125 490.070312 566.808594 C 484.398438 569.039062 473.96875 568.621094 467.621094 568.878906 C 462.542969 569.089844 457.582031 569.121094 452.523438 568.378906 C 445.074219 567.277344 439.355469 563.953125 433.507812 559.453125 C 433.140625 559.160156 432.621094 558.75 432.039062 558.273438 C 430.476562 560.570312 427.835938 561.984375 424.632812 561.839844 L 411.167969 561.839844 L 410.785156 561.808594 C 400.730469 560.722656 398.300781 551.269531 399.554688 542.910156 C 399.746094 541.613281 400.144531 540.429688 400.722656 539.394531 C 400.261719 532.394531 401.308594 526.691406 404.355469 519.675781 C 407.027344 513.53125 410.042969 506.917969 411.136719 500.269531 C 411.820312 496.109375 412.289062 489.996094 412.195312 485.421875 C 404.597656 487.34375 396.964844 487.710938 389.332031 489.445312 C 386.96875 489.980469 385.230469 490.714844 383.078125 491.757812 C 376.78125 494.824219 371.851562 495.910156 364.832031 496.570312 C 354.542969 497.53125 338.492188 499.484375 331.183594 490.683594 C 329.011719 488.058594 326.933594 485.296875 325.113281 482.414062 C 323.507812 479.875 321.582031 475.273438 319.636719 469.679688 C 315.449219 481.761719 309.753906 499.234375 297.746094 505.824219 C 288.144531 511.074219 271.617188 504.878906 262.546875 500.601562 C 254.824219 496.960938 244.878906 491.101562 239.515625 484.351562 C 239.140625 483.875 238.722656 483.441406 238.28125 483.03125 C 234.6875 479.734375 227.550781 477.261719 223.054688 475.28125 C 216.367188 472.335938 210.554688 469.054688 205.210938 464.636719 L 199.78125 471.089844 C 197.59375 477.164062 191.324219 481.179688 186.429688 484.945312 C 184.359375 486.546875 182.003906 488.980469 180.097656 490.824219 C 178.378906 492.496094 176.007812 494.648438 174.4375 496.527344 C 171.679688 502.023438 169.851562 507.851562 166.402344 513.070312 C 164.457031 516.019531 164.191406 519.644531 163.507812 523.015625 C 162.820312 526.390625 160.949219 529.699219 158.980469 532.59375 C 159.003906 533.921875 159.1875 535.542969 159.246094 536.695312 C 159.414062 539.9375 159.414062 543.183594 158.914062 546.398438 C 156.925781 559.144531 147.882812 565.390625 135.113281 565.390625 C 124.882812 565.390625 111.605469 558.558594 111.605469 546.984375 C 111.605469 537.496094 118.554688 523.808594 122.09375 514.816406 C 124.582031 508.476562 127.9375 501.988281 131.105469 495.960938 C 134.203125 490.054688 137.476562 483.992188 141.035156 478.347656 C 142.050781 476.734375 143.019531 475.066406 143.898438 473.378906 C 144.890625 471.476562 146.863281 467.425781 148.113281 464.277344 C 147.90625 463.976562 147.714844 463.660156 147.53125 463.324219 C 142.652344 454.3125 152.140625 443.882812 156.765625 436.867188 C 157.84375 435.222656 158.738281 433.570312 159.515625 431.867188 C 154.5625 429.429688 149.558594 426.980469 145 424.007812 C 140.238281 420.910156 136.082031 416.277344 137.769531 410.144531 C 139.128906 405.21875 143.480469 402.996094 148 401.660156 C 149.175781 401.320312 150.695312 401.011719 151.804688 400.558594 C 157.558594 398.238281 163.105469 395.273438 168.640625 392.484375 C 171.875 390.855469 175.0625 388.351562 177.996094 386.21875 C 182.3125 383.082031 186.613281 380.183594 191.457031 377.894531 C 193.960938 376.707031 196.910156 373.667969 198.820312 371.691406 C 202.519531 367.855469 206.019531 363.921875 209.921875 360.28125 C 215.898438 354.710938 223.800781 350.6875 228.953125 344.40625 C 229.34375 343.941406 229.738281 343.464844 230.128906 342.996094 C 215.441406 346.546875 200.699219 349.835938 185.929688 352.785156 C 171.808594 355.605469 157.601562 358.136719 143.339844 360.105469 C 131.628906 361.726562 119.714844 363.03125 107.898438 363.414062 C 104.523438 363.53125 101.191406 362.085938 98.601562 359.988281 C 95.304688 357.316406 92.914062 353.277344 93.292969 348.925781 C 93.859375 342.203125 99.863281 339.039062 105.824219 338.042969 C 160.25 328.976562 214.847656 316.046875 268.175781 301.523438 L 268.910156 300.546875 C 270.421875 295.296875 270.648438 289.632812 270.765625 284.214844 C 270.890625 278.351562 270.773438 271.578125 272.710938 266.007812 C 273.679688 263.226562 275.273438 260.988281 277.363281 259.378906 C 276.863281 257.367188 276.285156 255.371094 275.691406 253.382812 C 271.492188 239.460938 267.835938 228.605469 270.324219 213.941406 C 267.425781 197.390625 271.140625 181.554688 283.925781 169.972656 C 289.222656 165.179688 295.652344 162.132812 301.964844 158.964844 C 304.527344 157.6875 310.382812 154.375 313.78125 151.769531 C 313.464844 150.082031 313.222656 148.335938 313.054688 146.589844 C 302.839844 143.953125 292.667969 140.078125 282.648438 135.132812 L 273.886719 130.808594 L 280.5625 123.683594 C 284.871094 119.066406 289.511719 114.546875 294.375 110.171875 C 255.015625 102.980469 215.800781 94.875 176.910156 85.570312 C 156.742188 80.75 136.667969 75.449219 116.789062 69.5625 C 99.019531 64.300781 81.28125 58.570312 63.953125 51.992188 C 50.800781 46.996094 36.980469 41.285156 24.804688 34.210938 C 17.449219 29.9375 7.050781 23.113281 4.445312 14.511719 L 0.0429688 0.015625 L 14.089844 5.695312 C 40.230469 16.25 67.203125 25.285156 94.152344 33.535156 C 124.925781 42.957031 156.058594 51.390625 187.304688 59.046875 C 232.125 70.03125 278.015625 79.800781 323.785156 86.898438 C 329.222656 83.074219 334.707031 79.449219 340.128906 76.066406 L 343.652344 73.871094 L 347.316406 75.78125 "/></g><path style=" stroke:none;fill-rule:evenodd;fill:#361bdd;fill-opacity:1;" d="M 11.378906 12.40625 C 98.503906 47.605469 242.222656 83.164062 342.601562 96.96875 L 344.203125 87.691406 L 350.367188 88.753906 L 348.886719 97.320312 C 364.703125 99.515625 433.910156 109.027344 455.3125 110.4375 C 458.5625 110.65625 464.054688 110.898438 464.0625 115.324219 C 464.0625 115.75 464.054688 116.191406 464.03125 116.636719 C 463.945312 118.246094 463.753906 119.910156 463.597656 121.046875 C 463.144531 124.292969 462.253906 125.839844 458.136719 125.597656 C 424.546875 123.617188 379.378906 116.746094 346.339844 112.101562 L 344.527344 122.589844 L 338.367188 121.519531 L 340.21875 110.796875 C 286.414062 101.871094 231.609375 91.207031 178.597656 78.53125 C 96.992188 59.015625 17.097656 31.257812 11.378906 12.40625 "/><path style=" stroke:none;fill-rule:evenodd;fill:#361bdd;fill-opacity:1;" d="M 459.488281 253.242188 L 461.175781 258.015625 C 462.527344 261.839844 461.527344 263.621094 457.558594 265.039062 C 399.554688 285.851562 339.742188 305.476562 280.5625 322.226562 C 214.871094 340.824219 147.738281 354.855469 107.664062 356.175781 C 102.820312 356.339844 94.636719 347.253906 107.011719 345.191406 C 211.449219 327.796875 351.753906 288.441406 450.351562 250.484375 C 454.84375 248.765625 457.699219 248.203125 459.488281 253.242188 "/><path style=" stroke:none;fill-rule:evenodd;fill:#361bdd;fill-opacity:1;" d="M 361.164062 108.761719 C 378.816406 117.964844 377.605469 147.742188 362.15625 162.449219 C 364.996094 162.441406 377.78125 157.597656 384.636719 158.890625 C 384.746094 163.132812 384.046875 167.417969 383.101562 171.183594 C 386.667969 163.609375 388.371094 155.652344 389.339844 147.910156 C 390.089844 141.871094 389.132812 136.6875 390.351562 130.28125 C 385.597656 129.121094 375.078125 126.824219 374.507812 117.253906 C 374.785156 116.777344 375.578125 112.878906 375.5625 112.394531 C 375.519531 111 375.871094 101.179688 377.824219 96.894531 C 378.640625 95.105469 382.300781 94.097656 383.761719 95.925781 C 386.757812 93.738281 388.605469 92.703125 392.355469 94.414062 C 394.910156 95.574219 396.289062 92.519531 398.960938 95.816406 C 400.085938 97.203125 403.246094 94.964844 406.652344 99.066406 C 407.386719 99.949219 408.203125 104.542969 408.203125 105.753906 C 409.097656 107.125 409.574219 111.382812 409.574219 115.574219 C 410.101562 110.515625 412.054688 105.796875 412.914062 100.644531 C 413.464844 97.386719 414.46875 93.753906 416.65625 93.210938 C 419.453125 92.527344 421.542969 94.789062 421.214844 96.285156 C 421.5 95.773438 423.285156 94.046875 425.199219 94.40625 C 427.335938 94.804688 428.796875 96.902344 428.496094 97.679688 C 429.515625 96.402344 433.867188 97.136719 434.226562 100.351562 C 443.328125 100.257812 440.679688 112.59375 440.429688 118.898438 C 440.253906 123.359375 440.246094 129.019531 437.28125 132.894531 C 435.496094 135.96875 436.253906 143.726562 437.300781 150.941406 C 438.917969 162.125 438.570312 170.484375 436.589844 176.796875 C 434.886719 182.214844 431.964844 186.058594 427.828125 188.621094 C 423.710938 191.191406 418.695312 193.546875 413.523438 195.167969 C 414.417969 188.988281 413.859375 183.351562 413.859375 183.351562 C 413.597656 188.753906 412.339844 194.707031 410.066406 196.929688 C 405.230469 201.671875 398.851562 204.453125 392.15625 206.351562 C 382.851562 208.988281 378.800781 208.503906 373.648438 210.257812 C 366.46875 212.695312 357.355469 221.140625 352.421875 222.515625 C 353.816406 222.75 357.523438 222.15625 359.535156 221.039062 C 359.402344 222.324219 358.609375 226.285156 355.996094 228.871094 C 357.589844 231.261719 356.480469 240.355469 353.171875 242.691406 C 360.152344 248.65625 360.128906 260.128906 363.351562 267.613281 C 366.816406 261.75 377.632812 265.457031 381.171875 271.894531 C 386.074219 280.816406 383.167969 284.957031 385.523438 299.136719 C 396.164062 307.898438 405.230469 314.519531 418.234375 324.15625 C 423.9375 328.382812 448.574219 351.496094 452.789062 356.890625 C 454.277344 358.796875 460.53125 366.4375 461.75 367.546875 C 471.429688 373.542969 478.9375 396.96875 478.9375 409.152344 C 478.9375 414.882812 488.382812 423.875 482.050781 435.597656 C 478.46875 442.222656 480.507812 441.847656 474.484375 449.335938 C 473.691406 450.3125 473.183594 453.078125 471.746094 454.070312 C 467.1875 457.238281 459.519531 458.40625 459.511719 458.398438 C 463.832031 458.113281 465.417969 458.128906 466.328125 458.1875 C 468.414062 458.332031 469.03125 459.699219 468.246094 461.605469 C 467.253906 463.992188 465.109375 466.925781 464.324219 467.917969 C 463.078125 469.488281 461.691406 471.550781 460.800781 475.007812 C 459.113281 481.554688 458.878906 486.324219 452.023438 485.695312 C 448.441406 493.019531 443.8125 499.984375 443.8125 511.410156 C 443.8125 520.585938 449.074219 521.320312 453.449219 526.28125 C 456.1875 529.40625 463.046875 534.800781 466.378906 536.679688 C 473.351562 540.628906 474.820312 540.703125 482.253906 542.484375 C 488.574219 544.003906 492.882812 545.230469 490.386719 555.835938 C 490.519531 558.398438 492.390625 558.117188 487.414062 560.070312 C 483.488281 561.613281 472.5 561.421875 467.320312 561.640625 C 462.777344 561.832031 458.308594 561.90625 453.582031 561.207031 C 440.347656 559.25 434.167969 548.011719 426.351562 546.675781 C 426.351562 546.726562 426.351562 550.617188 426.351562 552.964844 C 426.351562 554.007812 426.050781 554.691406 424.832031 554.59375 L 411.554688 554.59375 C 405.882812 553.992188 406.21875 547.359375 406.71875 543.984375 C 406.992188 542.148438 407.730469 542.640625 408.3125 542.476562 C 407.292969 534.773438 407.894531 529.714844 411.003906 522.566406 C 413.917969 515.867188 417.074219 508.8125 418.292969 501.445312 C 418.917969 497.613281 419.628906 488.5625 419.386719 483.683594 C 419.136719 478.742188 414.992188 477.21875 410.683594 478.332031 C 402.191406 480.519531 397.539062 480.152344 387.726562 482.382812 C 378.484375 484.476562 379 487.960938 364.152344 489.347656 C 353.941406 490.304688 341.304688 491.527344 336.761719 486.054688 C 335.109375 484.050781 333.03125 481.371094 331.242188 478.546875 C 325.15625 468.910156 316.042969 431.648438 316.496094 423.839844 C 315.285156 429.335938 316.519531 442.839844 318.597656 453.335938 C 310.917969 467.992188 311.242188 477.121094 303.828125 488.929688 C 300.292969 494.546875 297.269531 497.8125 294.257812 499.46875 C 284.703125 504.703125 253.894531 490.800781 245.1875 479.84375 C 237.121094 469.6875 220.035156 470.683594 204.601562 454.113281 L 193.234375 467.609375 C 192.484375 471.933594 186.386719 475.84375 182.011719 479.207031 C 179.789062 480.910156 168.910156 491.433594 168.257812 492.6875 C 166.019531 497.054688 163.339844 504.570312 160.359375 509.078125 C 157.585938 513.28125 157.351562 516.902344 156.40625 521.574219 C 156.039062 523.382812 154.894531 525.875 152.117188 529.78125 C 149.976562 532.777344 159.039062 558.148438 135.113281 558.148438 C 128.390625 558.148438 118.851562 553.738281 118.851562 546.984375 C 118.851562 539.71875 124.582031 528.304688 128.832031 517.457031 C 132.199219 508.902344 142.070312 490.289062 147.164062 482.214844 C 148.257812 480.476562 149.359375 478.566406 150.328125 476.71875 C 151.613281 474.246094 157.394531 461.996094 156.148438 461.585938 C 148.15625 458.980469 160.375 444.558594 162.820312 440.859375 C 165.144531 437.328125 166.703125 433.960938 168.660156 428.351562 C 161.476562 424.617188 154.480469 421.535156 148.957031 417.9375 C 144.976562 415.347656 144.355469 413.519531 144.757812 412.066406 C 145.585938 409.085938 151.671875 408.433594 154.527344 407.28125 C 160.273438 404.953125 165.984375 401.9375 171.898438 398.957031 C 178.664062 395.546875 185.191406 388.867188 194.546875 384.449219 C 200.800781 381.492188 206.8125 373.09375 214.863281 365.585938 C 220.835938 360.015625 228.710938 356.140625 234.554688 349.007812 C 245.320312 335.898438 266.28125 316.597656 275.484375 303.839844 C 279.667969 290.9375 276.675781 276.648438 279.550781 268.390625 C 280.660156 265.214844 282.972656 263.964844 285.664062 263.761719 C 283.058594 247.34375 273.886719 233.625 277.6875 213.925781 C 274.632812 198.425781 278.140625 184.996094 288.792969 175.34375 C 293.371094 171.191406 299.375 168.371094 305.210938 165.445312 C 311.566406 162.265625 319.917969 156.820312 321.78125 154.066406 C 320.929688 151.34375 318.816406 144.535156 318.792969 137.949219 C 317.398438 135.207031 317.488281 128.769531 318.707031 125.855469 C 319.308594 124.394531 320.644531 123.992188 321.816406 124.300781 C 323.441406 118.867188 326.28125 114.011719 330.984375 111.039062 C 334.726562 108.660156 339.558594 107.316406 345.691406 107.316406 C 345.507812 99.859375 345.863281 93.210938 353.707031 99.367188 C 356.171875 101.304688 361.757812 94.648438 363.058594 101.320312 C 363.570312 103.917969 362.882812 106.699219 361.164062 108.761719 Z M 413.125 154.316406 C 411.789062 146.492188 409.859375 137.8125 408.863281 131.574219 C 408.222656 127.582031 408.488281 124.277344 408.53125 124.175781 C 409 123.03125 409.308594 121.128906 409.457031 118.957031 C 409.515625 120.335938 409.707031 121.753906 410.082031 123.226562 C 411.410156 128.410156 417.40625 127.875 419.746094 133.628906 C 419.652344 143.742188 418.734375 149.707031 413.125 154.316406 "/><path style=" stroke:none;fill-rule:evenodd;fill:#361bdd;fill-opacity:1;" d="M 285.847656 128.628906 C 325.988281 148.4375 366.652344 148.527344 401.609375 123.324219 C 382.417969 105.136719 365.671875 93.539062 343.96875 82.214844 C 323.71875 94.863281 301.832031 111.550781 285.847656 128.628906 "/><g clip-rule="nonzero" clip-path="url(#2d6a85dc05)"><path style=" stroke:none;fill-rule:evenodd;fill:#361bdd;fill-opacity:1;" d="M 15.183594 577.648438 C 43.5625 571.011719 104.207031 551.558594 136.074219 547.386719 C 144.53125 546.273438 168.140625 543.910156 188.234375 541.554688 C 211.625 538.808594 232.925781 537.449219 256.570312 537.273438 C 287.925781 537.039062 323.894531 539.644531 355.242188 540.195312 C 399.613281 540.964844 448.0625 544.914062 487.378906 550.332031 C 514.328125 554.050781 550.085938 562.125 573.710938 570.167969 C 573.886719 570.601562 545.769531 566.082031 519.457031 565.515625 C 505.742188 565.214844 458.5625 560.046875 468.933594 571.921875 C 474.371094 578.132812 482.128906 586.148438 469.550781 584.746094 C 429.03125 580.230469 433.117188 573.40625 400.898438 565.816406 C 379.929688 560.878906 350.925781 556.128906 375.777344 572.898438 C 385.054688 579.152344 365.832031 593.023438 332.46875 575.753906 C 322.984375 570.84375 274.347656 557.625 291.792969 573.316406 C 299.167969 579.9375 281.664062 593.617188 266.171875 575.871094 C 257.394531 565.816406 240.441406 567.320312 227.722656 566.785156 C 217.585938 566.367188 207.824219 568.113281 198.378906 570.257812 C 183.332031 573.683594 175.28125 585.515625 158.203125 590.550781 C 144.640625 594.558594 132.507812 597.664062 127.773438 591.5625 C 125.042969 588.046875 117.101562 578.167969 132.523438 572.078125 C 141.25 568.636719 128.992188 566.992188 124.78125 567.242188 C 112.789062 567.96875 95.144531 569.683594 79.761719 571.285156 C 58.257812 573.539062 36.355469 577.179688 15.183594 577.648438 "/></g></g></g></g></g></svg>